<svg data-v-423bf9ae="" xmlns="http://www.w3.org/2000/svg" viewBox="0 0 557.7313746917401 185" class="iconAboveSlogan"><!----><!----><!----><g data-v-423bf9ae="" id="e87f8a90-d5f1-428b-9182-081bc2088c82" fill="#2C4845" transform="matrix(5.970149706951518,0,0,5.970149706951518,-3.7014907957897094,81.44833408292884)"><path d="M9.04 8.65L6.13 8.65L6.13 10.02L7.27 10.02L7.26 11.32C7 11.57 6.49 11.92 5.51 11.92C3.87 11.92 2.56 10.65 2.56 8.94C2.56 7.23 3.87 5.95 5.51 5.95C6.73 5.95 7.37 6.45 8.04 6.96L8.04 5.04C7.41 4.50 6.60 4.16 5.46 4.16C2.83 4.16 0.62 6.11 0.62 8.94C0.62 11.77 2.83 13.73 5.46 13.73C6.95 13.73 8.27 13.08 9.04 12.29ZM13.55 6.44C11.77 6.44 10.34 7.81 10.34 10.12C10.34 12.41 11.77 13.73 13.43 13.73C14.45 13.73 15.23 13.10 15.64 12.36L15.64 13.52L17.38 13.52L17.38 6.62L15.64 6.62L15.64 7.40C15.12 6.82 14.30 6.44 13.55 6.44ZM13.90 8.13C14.57 8.13 15.15 8.48 15.64 9.00L15.64 9.98C15.65 11.22 14.78 11.99 13.86 11.99C12.82 11.99 12.14 11.16 12.14 10.12C12.14 9.08 12.82 8.13 13.90 8.13ZM23.19 6.48C22.37 6.48 21.72 7.10 21.25 7.92L21.25 6.62L19.51 6.62L19.51 13.52L21.25 13.52L21.25 9.67C21.66 8.90 22.15 8.31 22.94 8.31C23.35 8.31 23.69 8.44 24.01 8.65L24.01 6.67C23.76 6.55 23.50 6.48 23.19 6.48ZM31.91 13.52L31.91 3.68L30.17 3.68L30.17 7.40C29.65 6.82 28.83 6.44 28.08 6.44C26.30 6.44 24.87 7.81 24.87 10.12C24.87 12.41 26.30 13.73 27.96 13.73C28.98 13.73 29.76 13.10 30.17 12.36L30.17 13.52ZM28.44 8.15C29.11 8.15 29.68 8.48 30.17 9.00L30.17 9.98C30.19 11.22 29.31 11.99 28.40 11.99C27.36 11.99 26.67 11.16 26.67 10.12C26.67 9.08 27.36 8.15 28.44 8.15ZM40.32 9.87C40.32 7.86 39.10 6.44 37.06 6.44C35.04 6.44 33.56 8.13 33.56 10.14C33.56 12.22 35.23 13.73 37.27 13.73C38.32 13.73 39.06 13.38 39.44 13.10L39.44 11.53C39.02 11.80 38.35 12.15 37.34 12.15C36.29 12.15 35.51 11.54 35.31 10.60L40.32 10.60ZM35.34 9.46C35.55 8.54 36.15 7.96 37.02 7.96C37.82 7.96 38.58 8.46 38.65 9.46ZM45.73 6.44C44.80 6.44 44.06 7.04 43.64 7.60L43.64 6.62L41.90 6.62L41.90 13.52L43.64 13.52L43.64 9.15C44.04 8.60 44.58 8.13 45.20 8.13C45.98 8.13 46.46 8.59 46.46 9.52L46.47 13.52L48.21 13.52L48.21 9.28C48.21 7.40 47.14 6.44 45.73 6.44ZM62.64 4.36L60.76 4.36L60.76 8.09L56.51 8.09L56.51 4.36L54.61 4.36L54.61 13.52L56.51 13.52L56.51 9.80L60.76 9.80L60.76 13.52L62.64 13.52ZM68.29 6.44C66.28 6.44 64.60 8.04 64.60 10.09C64.60 12.13 66.28 13.73 68.29 13.73C70.30 13.73 72.00 12.13 72.00 10.09C72.00 8.04 70.30 6.44 68.29 6.44ZM68.29 8.12C69.28 8.12 70.15 8.83 70.15 10.09C70.15 11.35 69.28 12.04 68.29 12.04C67.31 12.04 66.45 11.35 66.45 10.09C66.45 8.83 67.31 8.12 68.29 8.12ZM79.73 6.62L77.97 6.62L77.97 10.42C77.97 11.48 77.42 12.02 76.62 12.02C75.81 12.02 75.26 11.48 75.26 10.42L75.25 6.62L73.50 6.62L73.50 10.73C73.50 12.58 74.83 13.70 76.62 13.70C78.41 13.70 79.73 12.58 79.73 10.73ZM83.95 6.44C82.39 6.44 81.29 7.33 81.29 8.63C81.29 9.50 81.63 10.14 82.69 10.50L83.54 10.80C84.14 11.01 84.45 11.16 84.45 11.51C84.45 11.96 84.07 12.22 83.37 12.22C82.70 12.22 81.77 11.87 81.25 11.51L81.25 13.03C81.72 13.37 82.67 13.73 83.60 13.73C85.08 13.73 86.28 12.78 86.28 11.51C86.28 10.62 85.78 10.01 84.71 9.69L83.93 9.43C83.32 9.24 83.14 9.01 83.14 8.71C83.14 8.30 83.55 7.97 84.21 7.97C84.89 7.97 85.56 8.31 85.98 8.60L85.98 7.07C85.59 6.73 84.81 6.44 83.95 6.44ZM94.04 9.87C94.04 7.86 92.82 6.44 90.78 6.44C88.76 6.44 87.28 8.13 87.28 10.14C87.28 12.22 88.95 13.73 90.99 13.73C92.04 13.73 92.78 13.38 93.16 13.10L93.16 11.53C92.74 11.80 92.07 12.15 91.05 12.15C90.00 12.15 89.22 11.54 89.03 10.60L94.04 10.60ZM89.06 9.46C89.26 8.54 89.87 7.96 90.74 7.96C91.53 7.96 92.30 8.46 92.37 9.46Z"></path></g><!----><g data-v-423bf9ae="" id="80f11756-2165-455f-ae71-1710395d7860" transform="matrix(1.0023222181532119,0,0,1.0023222181532119,229.5118912132677,-5.222878369554145)" stroke="none" fill="#2C4845"><path d="M74.488 72.223C89.962 56.755 93.59 5.872 93.59 5.872s-10.505 5.477-27.287 6.917c-15.825 1.359-30.481 3.591-39.069 12.179-13.254 13.257-16.571 32.125-9.027 45.459 8.304-13.03 42.448-31.622 42.448-31.622C36.148 56.331 23.661 69.922 6.847 93.874l8.245 2.207s6.138-11.085 11.474-16.44c13.392 9.502 33.82 6.689 47.922-7.418z"></path></g><!----><g data-v-423bf9ae="" id="70488ef2-a3c8-4afc-8495-dfd00c5c93c0" fill="#2C4845" transform="matrix(0.8830452189981942,0,0,0.8830452189981942,69.98991068668175,202.02078232936256)"><path d="M4.69 11.65L2.37 11.65L2.37 15.68L1.19 15.68L1.19 5.88L4.69 5.88L4.69 5.88Q5.45 5.88 6.01 6.10L6.01 6.10L6.01 6.10Q6.57 6.31 6.94 6.68L6.94 6.68L6.94 6.68Q7.31 7.04 7.50 7.53L7.50 7.53L7.50 7.53Q7.69 8.01 7.69 8.54L7.69 8.54L7.69 8.96L7.69 8.96Q7.69 9.49 7.50 9.98L7.50 9.98L7.50 9.98Q7.31 10.47 6.93 10.84L6.93 10.84L6.93 10.84Q6.55 11.21 5.99 11.43L5.99 11.43L5.99 11.43Q5.43 11.65 4.69 11.65L4.69 11.65ZM2.37 6.97L2.37 10.56L4.55 10.56L4.55 10.56Q6.51 10.56 6.51 8.88L6.51 8.88L6.51 8.62L6.51 8.62Q6.51 7.88 6.03 7.43L6.03 7.43L6.03 7.43Q5.54 6.97 4.55 6.97L4.55 6.97L2.37 6.97ZM16.79 15.68L16.79 5.88L17.96 5.88L17.96 14.59L23.09 14.59L23.09 15.68L16.79 15.68ZM38.23 15.68L37.52 13.24L33.32 13.24L32.61 15.68L31.35 15.68L34.31 5.88L36.53 5.88L39.49 15.68L38.23 15.68ZM35.50 6.38L35.34 6.38L33.64 12.15L37.20 12.15L35.50 6.38ZM47.54 6.97L47.54 5.88L54.43 5.88L54.43 6.97L51.58 6.97L51.58 15.68L50.40 15.68L50.40 6.97L47.54 6.97ZM63.60 15.68L63.60 5.88L69.62 5.88L69.62 6.97L64.78 6.97L64.78 10.22L69.54 10.22L69.54 11.31L64.78 11.31L64.78 15.68L63.60 15.68ZM78.68 11.87L78.68 9.69L78.68 9.69Q78.68 7.78 79.59 6.73L79.59 6.73L79.59 6.73Q80.50 5.68 82.12 5.68L82.12 5.68L82.12 5.68Q83.75 5.68 84.66 6.73L84.66 6.73L84.66 6.73Q85.57 7.78 85.57 9.69L85.57 9.69L85.57 11.87L85.57 11.87Q85.57 13.83 84.66 14.85L84.66 14.85L84.66 14.85Q83.75 15.88 82.12 15.88L82.12 15.88L82.12 15.88Q80.50 15.88 79.59 14.85L79.59 14.85L79.59 14.85Q78.68 13.83 78.68 11.87L78.68 11.87ZM82.12 14.78L82.12 14.78L82.12 14.78Q83.26 14.78 83.83 14.01L83.83 14.01L83.83 14.01Q84.39 13.23 84.39 11.79L84.39 11.79L84.39 9.77L84.39 9.77Q84.39 8.43 83.83 7.60L83.83 7.60L83.83 7.60Q83.26 6.78 82.12 6.78L82.12 6.78L82.12 6.78Q80.99 6.78 80.42 7.60L80.42 7.60L80.42 7.60Q79.86 8.43 79.86 9.77L79.86 9.77L79.86 11.79L79.86 11.79Q79.86 13.23 80.42 14.01L80.42 14.01L80.42 14.01Q80.99 14.78 82.12 14.78ZM100.76 12.15L100.76 15.68L99.58 15.68L99.58 12.40L99.58 12.40Q99.58 12.04 99.41 11.84L99.41 11.84L99.41 11.84Q99.25 11.65 98.83 11.65L98.83 11.65L95.77 11.65L95.77 15.68L94.60 15.68L94.60 5.88L98.10 5.88L98.10 5.88Q98.85 5.88 99.41 6.10L99.41 6.10L99.41 6.10Q99.97 6.31 100.34 6.68L100.34 6.68L100.34 6.68Q100.72 7.04 100.91 7.53L100.91 7.53L100.91 7.53Q101.09 8.01 101.09 8.54L101.09 8.54L101.09 8.96L101.09 8.96Q101.09 9.51 100.79 10.05L100.79 10.05L100.79 10.05Q100.49 10.60 99.86 10.89L99.86 10.89L99.86 11.06L99.86 11.06Q100.28 11.13 100.52 11.40L100.52 11.40L100.52 11.40Q100.76 11.66 100.76 12.15L100.76 12.15ZM95.77 6.97L95.77 10.56L97.96 10.56L97.96 10.56Q98.95 10.56 99.44 10.13L99.44 10.13L99.44 10.13Q99.92 9.70 99.92 8.88L99.92 8.88L99.92 8.62L99.92 8.62Q99.92 7.88 99.44 7.43L99.44 7.43L99.44 7.43Q98.95 6.97 97.96 6.97L97.96 6.97L95.77 6.97ZM109.62 15.68L109.62 5.88L111.86 5.88L113.18 15.18L113.34 15.18L114.66 5.88L116.90 5.88L116.90 15.68L115.81 15.68L115.81 6.38L115.64 6.38L114.32 15.68L112.20 15.68L110.88 6.38L110.71 6.38L110.71 15.68L109.62 15.68ZM141.44 15.68L141.44 5.88L147.46 5.88L147.46 6.97L142.62 6.97L142.62 10.22L147.38 10.22L147.38 11.31L142.62 11.31L142.62 15.68L141.44 15.68ZM156.52 11.87L156.52 9.69L156.52 9.69Q156.52 7.78 157.43 6.73L157.43 6.73L157.43 6.73Q158.34 5.68 159.96 5.68L159.96 5.68L159.96 5.68Q161.59 5.68 162.50 6.73L162.50 6.73L162.50 6.73Q163.41 7.78 163.41 9.69L163.41 9.69L163.41 11.87L163.41 11.87Q163.41 13.83 162.50 14.85L162.50 14.85L162.50 14.85Q161.59 15.88 159.96 15.88L159.96 15.88L159.96 15.88Q158.34 15.88 157.43 14.85L157.43 14.85L157.43 14.85Q156.52 13.83 156.52 11.87L156.52 11.87ZM159.96 14.78L159.96 14.78L159.96 14.78Q161.10 14.78 161.67 14.01L161.67 14.01L161.67 14.01Q162.23 13.23 162.23 11.79L162.23 11.79L162.23 9.77L162.23 9.77Q162.23 8.43 161.67 7.60L161.67 7.60L161.67 7.60Q161.10 6.78 159.96 6.78L159.96 6.78L159.96 6.78Q158.83 6.78 158.26 7.60L158.26 7.60L158.26 7.60Q157.70 8.43 157.70 9.77L157.70 9.77L157.70 11.79L157.70 11.79Q157.70 13.23 158.26 14.01L158.26 14.01L158.26 14.01Q158.83 14.78 159.96 14.78ZM178.60 12.15L178.60 15.68L177.42 15.68L177.42 12.40L177.42 12.40Q177.42 12.04 177.25 11.84L177.25 11.84L177.25 11.84Q177.09 11.65 176.67 11.65L176.67 11.65L173.61 11.65L173.61 15.68L172.44 15.68L172.44 5.88L175.94 5.88L175.94 5.88Q176.69 5.88 177.25 6.10L177.25 6.10L177.25 6.10Q177.81 6.31 178.19 6.68L178.19 6.68L178.19 6.68Q178.56 7.04 178.75 7.53L178.75 7.53L178.75 7.53Q178.93 8.01 178.93 8.54L178.93 8.54L178.93 8.96L178.93 8.96Q178.93 9.51 178.63 10.05L178.63 10.05L178.63 10.05Q178.33 10.60 177.70 10.89L177.70 10.89L177.70 11.06L177.70 11.06Q178.12 11.13 178.36 11.40L178.36 11.40L178.36 11.40Q178.60 11.66 178.60 12.15L178.60 12.15ZM173.61 6.97L173.61 10.56L175.80 10.56L175.80 10.56Q176.79 10.56 177.28 10.13L177.28 10.13L177.28 10.13Q177.76 9.70 177.76 8.88L177.76 8.88L177.76 8.62L177.76 8.62Q177.76 7.88 177.28 7.43L177.28 7.43L177.28 7.43Q176.79 6.97 175.80 6.97L175.80 6.97L173.61 6.97ZM203.03 15.68L203.03 5.88L205.27 5.88L206.58 15.18L206.75 15.18L208.07 5.88L210.31 5.88L210.31 15.68L209.22 15.68L209.22 6.38L209.05 6.38L207.73 15.68L205.60 15.68L204.29 6.38L204.12 6.38L204.12 15.68L203.03 15.68ZM225.05 15.68L224.34 13.24L220.14 13.24L219.42 15.68L218.16 15.68L221.13 5.88L223.34 5.88L226.31 15.68L225.05 15.68ZM222.32 6.38L222.15 6.38L220.46 12.15L224.01 12.15L222.32 6.38ZM236.89 5.88L239.72 15.18L239.89 15.18L239.89 5.88L241.07 5.88L241.07 15.68L238.71 15.68L235.89 6.38L235.72 6.38L235.72 15.68L234.54 15.68L234.54 5.88L236.89 5.88ZM256.19 15.68L255.47 13.24L251.27 13.24L250.56 15.68L249.30 15.68L252.27 5.88L254.48 5.88L257.45 15.68L256.19 15.68ZM253.46 6.38L253.29 6.38L251.59 12.15L255.15 12.15L253.46 6.38ZM268.00 12.07L268.00 10.98L272.37 10.98L272.37 15.68L271.28 15.68L271.28 14.50L271.11 14.50L271.11 14.50Q270.87 15.12 270.27 15.50L270.27 15.50L270.27 15.50Q269.67 15.88 268.87 15.88L268.87 15.88L268.87 15.88Q267.29 15.88 266.39 14.85L266.39 14.85L266.39 14.85Q265.48 13.83 265.48 11.87L265.48 11.87L265.48 9.69L265.48 9.69Q265.48 7.78 266.39 6.73L266.39 6.73L266.39 6.73Q267.30 5.68 268.93 5.68L268.93 5.68L268.93 5.68Q269.77 5.68 270.41 5.96L270.41 5.96L270.41 5.96Q271.05 6.23 271.49 6.71L271.49 6.71L271.49 6.71Q271.92 7.20 272.15 7.85L272.15 7.85L272.15 7.85Q272.37 8.50 272.37 9.24L272.37 9.24L272.37 9.41L271.19 9.41L271.19 9.24L271.19 9.24Q271.19 8.76 271.06 8.32L271.06 8.32L271.06 8.32Q270.93 7.87 270.66 7.53L270.66 7.53L270.66 7.53Q270.38 7.18 269.96 6.98L269.96 6.98L269.96 6.98Q269.53 6.78 268.93 6.78L268.93 6.78L268.93 6.78Q267.79 6.78 267.23 7.60L267.23 7.60L267.23 7.60Q266.66 8.43 266.66 9.77L266.66 9.77L266.66 11.79L266.66 11.79Q266.66 13.23 267.23 14.01L267.23 14.01L267.23 14.01Q267.79 14.78 268.95 14.78L268.95 14.78L268.95 14.78Q270.00 14.78 270.60 14.11L270.60 14.11L270.60 14.11Q271.19 13.44 271.19 12.24L271.19 12.24L271.19 12.07L268.00 12.07ZM281.40 6.97L281.40 5.88L287.62 5.88L287.62 6.97L285.10 6.97L285.10 14.59L287.62 14.59L287.62 15.68L281.40 15.68L281.40 14.59L283.92 14.59L283.92 6.97L281.40 6.97ZM299.17 5.88L301.99 15.18L302.16 15.18L302.16 5.88L303.34 5.88L303.34 15.68L300.99 15.68L298.16 6.38L297.99 6.38L297.99 15.68L296.81 15.68L296.81 5.88L299.17 5.88ZM314.71 12.07L314.71 10.98L319.07 10.98L319.07 15.68L317.98 15.68L317.98 14.50L317.81 14.50L317.81 14.50Q317.58 15.12 316.97 15.50L316.97 15.50L316.97 15.50Q316.37 15.88 315.57 15.88L315.57 15.88L315.57 15.88Q313.99 15.88 313.09 14.85L313.09 14.85L313.09 14.85Q312.19 13.83 312.19 11.87L312.19 11.87L312.19 9.69L312.19 9.69Q312.19 7.78 313.10 6.73L313.10 6.73L313.10 6.73Q314.01 5.68 315.63 5.68L315.63 5.68L315.63 5.68Q316.47 5.68 317.11 5.96L317.11 5.96L317.11 5.96Q317.76 6.23 318.19 6.71L318.19 6.71L318.19 6.71Q318.63 7.20 318.85 7.85L318.85 7.85L318.85 7.85Q319.07 8.50 319.07 9.24L319.07 9.24L319.07 9.41L317.90 9.41L317.90 9.24L317.90 9.24Q317.90 8.76 317.76 8.32L317.76 8.32L317.76 8.32Q317.63 7.87 317.36 7.53L317.36 7.53L317.36 7.53Q317.09 7.18 316.66 6.98L316.66 6.98L316.66 6.98Q316.23 6.78 315.63 6.78L315.63 6.78L315.63 6.78Q314.50 6.78 313.93 7.60L313.93 7.60L313.93 7.60Q313.36 8.43 313.36 9.77L313.36 9.77L313.36 11.79L313.36 11.79Q313.36 13.23 313.93 14.01L313.93 14.01L313.93 14.01Q314.50 14.78 315.66 14.78L315.66 14.78L315.66 14.78Q316.71 14.78 317.30 14.11L317.30 14.11L317.30 14.11Q317.90 13.44 317.90 12.24L317.90 12.24L317.90 12.07L314.71 12.07ZM345.87 5.88L348.70 15.18L348.87 15.18L348.87 5.88L350.04 5.88L350.04 15.68L347.69 15.68L344.86 6.38L344.69 6.38L344.69 15.68L343.52 15.68L343.52 5.88L345.87 5.88ZM358.99 5.88L360.16 5.88L360.16 12.38L360.16 12.38Q360.16 13.57 360.72 14.17L360.72 14.17L360.72 14.17Q361.27 14.78 362.35 14.78L362.35 14.78L362.35 14.78Q363.43 14.78 363.98 14.17L363.98 14.17L363.98 14.17Q364.53 13.57 364.53 12.38L364.53 12.38L364.53 5.88L365.71 5.88L365.71 12.38L365.71 12.38Q365.71 14.08 364.81 14.98L364.81 14.98L364.81 14.98Q363.92 15.88 362.35 15.88L362.35 15.88L362.35 15.88Q360.78 15.88 359.88 14.98L359.88 14.98L359.88 14.98Q358.99 14.08 358.99 12.38L358.99 12.38L358.99 5.88ZM380.98 12.15L380.98 15.68L379.81 15.68L379.81 12.40L379.81 12.40Q379.81 12.04 379.64 11.84L379.64 11.84L379.64 11.84Q379.47 11.65 379.05 11.65L379.05 11.65L376.00 11.65L376.00 15.68L374.82 15.68L374.82 5.88L378.32 5.88L378.32 5.88Q379.08 5.88 379.64 6.10L379.64 6.10L379.64 6.10Q380.20 6.31 380.57 6.68L380.57 6.68L380.57 6.68Q380.94 7.04 381.13 7.53L381.13 7.53L381.13 7.53Q381.32 8.01 381.32 8.54L381.32 8.54L381.32 8.96L381.32 8.96Q381.32 9.51 381.02 10.05L381.02 10.05L381.02 10.05Q380.72 10.60 380.09 10.89L380.09 10.89L380.09 11.06L380.09 11.06Q380.51 11.13 380.74 11.40L380.74 11.40L380.74 11.40Q380.98 11.66 380.98 12.15L380.98 12.15ZM376.00 6.97L376.00 10.56L378.18 10.56L378.18 10.56Q379.18 10.56 379.66 10.13L379.66 10.13L379.66 10.13Q380.14 9.70 380.14 8.88L380.14 8.88L380.14 8.62L380.14 8.62Q380.14 7.88 379.66 7.43L379.66 7.43L379.66 7.43Q379.18 6.97 378.18 6.97L378.18 6.97L376.00 6.97ZM395.79 9.21L395.79 8.71L395.79 8.71Q395.79 8.23 395.60 7.87L395.60 7.87L395.60 7.87Q395.42 7.50 395.09 7.27L395.09 7.27L395.09 7.27Q394.77 7.03 394.35 6.90L394.35 6.90L394.35 6.90Q393.93 6.78 393.47 6.78L393.47 6.78L393.47 6.78Q393.06 6.78 392.70 6.88L392.70 6.88L392.70 6.88Q392.34 6.99 392.05 7.18L392.05 7.18L392.05 7.18Q391.76 7.38 391.59 7.66L391.59 7.66L391.59 7.66Q391.43 7.95 391.43 8.33L391.43 8.33L391.43 8.41L391.43 8.41Q391.43 8.82 391.59 9.11L391.59 9.11L391.59 9.11Q391.76 9.39 392.09 9.60L392.09 9.60L392.09 9.60Q392.42 9.80 392.91 9.93L392.91 9.93L392.91 9.93Q393.40 10.07 394.06 10.16L394.06 10.16L394.06 10.16Q395.60 10.40 396.33 11.07L396.33 11.07L396.33 11.07Q397.05 11.73 397.05 12.85L397.05 12.85L397.05 13.02L397.05 13.02Q397.05 13.65 396.84 14.17L396.84 14.17L396.84 14.17Q396.62 14.70 396.19 15.08L396.19 15.08L396.19 15.08Q395.77 15.46 395.14 15.67L395.14 15.67L395.14 15.67Q394.51 15.88 393.68 15.88L393.68 15.88L393.68 15.88Q392.74 15.88 392.02 15.60L392.02 15.60L392.02 15.60Q391.30 15.33 390.82 14.85L390.82 14.85L390.82 14.85Q390.33 14.36 390.08 13.71L390.08 13.71L390.08 13.71Q389.83 13.06 389.83 12.29L389.83 12.29L389.83 11.87L391.01 11.87L391.01 12.21L391.01 12.21Q391.01 13.50 391.71 14.14L391.71 14.14L391.71 14.14Q392.42 14.78 393.68 14.78L393.68 14.78L393.68 14.78Q394.77 14.78 395.32 14.30L395.32 14.30L395.32 14.30Q395.88 13.82 395.88 13.02L395.88 13.02L395.88 12.94L395.88 12.94Q395.88 12.17 395.31 11.76L395.31 11.76L395.31 11.76Q394.74 11.35 393.47 11.17L393.47 11.17L393.47 11.17Q392.73 11.07 392.13 10.87L392.13 10.87L392.13 10.87Q391.54 10.67 391.12 10.34L391.12 10.34L391.12 10.34Q390.70 10.01 390.47 9.55L390.47 9.55L390.47 9.55Q390.25 9.09 390.25 8.46L390.25 8.46L390.25 8.29L390.25 8.29Q390.25 7.71 390.49 7.24L390.49 7.24L390.49 7.24Q390.73 6.76 391.15 6.41L391.15 6.41L391.15 6.41Q391.58 6.06 392.17 5.87L392.17 5.87L392.17 5.87Q392.77 5.68 393.48 5.68L393.48 5.68L393.48 5.68Q394.31 5.68 394.96 5.92L394.96 5.92L394.96 5.92Q395.61 6.16 396.06 6.56L396.06 6.56L396.06 6.56Q396.51 6.96 396.74 7.50L396.74 7.50L396.74 7.50Q396.97 8.04 396.97 8.62L396.97 8.62L396.97 9.21L395.79 9.21ZM406.08 15.68L406.08 5.88L412.02 5.88L412.02 6.97L407.26 6.97L407.26 10.22L411.94 10.22L411.94 11.31L407.26 11.31L407.26 14.59L412.10 14.59L412.10 15.68L406.08 15.68ZM427.69 12.15L427.69 15.68L426.51 15.68L426.51 12.40L426.51 12.40Q426.51 12.04 426.34 11.84L426.34 11.84L426.34 11.84Q426.17 11.65 425.75 11.65L425.75 11.65L422.70 11.65L422.70 15.68L421.53 15.68L421.53 5.88L425.03 5.88L425.03 5.88Q425.78 5.88 426.34 6.10L426.34 6.10L426.34 6.10Q426.90 6.31 427.27 6.68L427.27 6.68L427.27 6.68Q427.64 7.04 427.83 7.53L427.83 7.53L427.83 7.53Q428.02 8.01 428.02 8.54L428.02 8.54L428.02 8.96L428.02 8.96Q428.02 9.51 427.72 10.05L427.72 10.05L427.72 10.05Q427.42 10.60 426.79 10.89L426.79 10.89L426.79 11.06L426.79 11.06Q427.21 11.13 427.45 11.40L427.45 11.40L427.45 11.40Q427.69 11.66 427.69 12.15L427.69 12.15ZM422.70 6.97L422.70 10.56L424.89 10.56L424.89 10.56Q425.88 10.56 426.36 10.13L426.36 10.13L426.36 10.13Q426.85 9.70 426.85 8.88L426.85 8.88L426.85 8.62L426.85 8.62Q426.85 7.88 426.36 7.43L426.36 7.43L426.36 7.43Q425.88 6.97 424.89 6.97L424.89 6.97L422.70 6.97ZM437.08 6.97L437.08 5.88L443.30 5.88L443.30 6.97L440.78 6.97L440.78 14.59L443.30 14.59L443.30 15.68L437.08 15.68L437.08 14.59L439.60 14.59L439.60 6.97L437.08 6.97ZM452.79 15.68L452.79 5.88L458.72 5.88L458.72 6.97L453.96 6.97L453.96 10.22L458.64 10.22L458.64 11.31L453.96 11.31L453.96 14.59L458.81 14.59L458.81 15.68L452.79 15.68ZM473.63 9.21L473.63 8.71L473.63 8.71Q473.63 8.23 473.44 7.87L473.44 7.87L473.44 7.87Q473.26 7.50 472.93 7.27L472.93 7.27L472.93 7.27Q472.61 7.03 472.19 6.90L472.19 6.90L472.19 6.90Q471.77 6.78 471.31 6.78L471.31 6.78L471.31 6.78Q470.90 6.78 470.54 6.88L470.54 6.88L470.54 6.88Q470.18 6.99 469.89 7.18L469.89 7.18L469.89 7.18Q469.60 7.38 469.43 7.66L469.43 7.66L469.43 7.66Q469.27 7.95 469.27 8.33L469.27 8.33L469.27 8.41L469.27 8.41Q469.27 8.82 469.43 9.11L469.43 9.11L469.43 9.11Q469.60 9.39 469.93 9.60L469.93 9.60L469.93 9.60Q470.26 9.80 470.75 9.93L470.75 9.93L470.75 9.93Q471.24 10.07 471.90 10.16L471.90 10.16L471.90 10.16Q473.44 10.40 474.17 11.07L474.17 11.07L474.17 11.07Q474.89 11.73 474.89 12.85L474.89 12.85L474.89 13.02L474.89 13.02Q474.89 13.65 474.68 14.17L474.68 14.17L474.68 14.17Q474.46 14.70 474.03 15.08L474.03 15.08L474.03 15.08Q473.61 15.46 472.98 15.67L472.98 15.67L472.98 15.67Q472.35 15.88 471.52 15.88L471.52 15.88L471.52 15.88Q470.58 15.88 469.86 15.60L469.86 15.60L469.86 15.60Q469.14 15.33 468.66 14.85L468.66 14.85L468.66 14.85Q468.17 14.36 467.92 13.71L467.92 13.71L467.92 13.71Q467.67 13.06 467.67 12.29L467.67 12.29L467.67 11.87L468.85 11.87L468.85 12.21L468.85 12.21Q468.85 13.50 469.55 14.14L469.55 14.14L469.55 14.14Q470.26 14.78 471.52 14.78L471.52 14.78L471.52 14.78Q472.61 14.78 473.16 14.30L473.16 14.30L473.16 14.30Q473.72 13.82 473.72 13.02L473.72 13.02L473.72 12.94L473.72 12.94Q473.72 12.17 473.15 11.76L473.15 11.76L473.15 11.76Q472.58 11.35 471.31 11.17L471.31 11.17L471.31 11.17Q470.57 11.07 469.97 10.87L469.97 10.87L469.97 10.87Q469.38 10.67 468.96 10.34L468.96 10.34L468.96 10.34Q468.54 10.01 468.31 9.55L468.31 9.55L468.31 9.55Q468.09 9.09 468.09 8.46L468.09 8.46L468.09 8.29L468.09 8.29Q468.09 7.71 468.33 7.24L468.33 7.24L468.33 7.24Q468.57 6.76 468.99 6.41L468.99 6.41L468.99 6.41Q469.42 6.06 470.01 5.87L470.01 5.87L470.01 5.87Q470.61 5.68 471.32 5.68L471.32 5.68L471.32 5.68Q472.15 5.68 472.80 5.92L472.80 5.92L472.80 5.92Q473.45 6.16 473.90 6.56L473.90 6.56L473.90 6.56Q474.35 6.96 474.58 7.50L474.58 7.50L474.58 7.50Q474.81 8.04 474.81 8.62L474.81 8.62L474.81 9.21L473.63 9.21Z"></path></g></svg>