<svg width="558" height="185" viewBox="0 0 558 185" fill="none" xmlns="http://www.w3.org/2000/svg">
<g clip-path="url(#clip0)">
<path d="M50.2687 133.09H32.8955V141.269H39.7015L39.6418 149.03C38.0896 150.523 35.0448 152.613 29.194 152.613C19.403 152.613 11.5821 145.03 11.5821 134.821C11.5821 124.613 19.403 116.971 29.194 116.971C36.4776 116.971 40.2985 119.956 44.2985 123.001V111.538C40.5373 108.314 35.7015 106.284 28.8955 106.284C13.194 106.284 0 117.926 0 134.821C0 151.717 13.194 163.418 28.8955 163.418C37.7911 163.418 45.6716 159.538 50.2687 154.821V133.09ZM77.194 119.896C66.5672 119.896 58.0299 128.075 58.0299 141.866C58.0299 155.538 66.5672 163.418 76.4776 163.418C82.5672 163.418 87.2239 159.657 89.6717 155.239V162.165H100.06V120.971H89.6717V125.627C86.5672 122.165 81.6717 119.896 77.194 119.896ZM79.2836 129.986C83.2836 129.986 86.7463 132.075 89.6717 135.18V141.03C89.7314 148.433 84.5373 153.03 79.0448 153.03C72.8358 153.03 68.7761 148.075 68.7761 141.866C68.7761 135.657 72.8358 129.986 79.2836 129.986ZM134.746 120.135C129.851 120.135 125.97 123.836 123.164 128.732V120.971H112.776V162.165H123.164V139.18C125.612 134.583 128.537 131.06 133.254 131.06C135.702 131.06 137.731 131.836 139.642 133.09V121.269C138.149 120.553 136.597 120.135 134.746 120.135ZM186.806 162.165V103.418H176.418V125.627C173.313 122.165 168.418 119.896 163.94 119.896C153.313 119.896 144.776 128.075 144.776 141.866C144.776 155.538 153.313 163.418 163.224 163.418C169.313 163.418 173.97 159.657 176.418 155.239V162.165H186.806ZM166.09 130.105C170.09 130.105 173.493 132.075 176.418 135.18V141.03C176.537 148.433 171.284 153.03 165.851 153.03C159.642 153.03 155.522 148.075 155.522 141.866C155.522 135.657 159.642 130.105 166.09 130.105ZM237.015 140.374C237.015 128.374 229.731 119.896 217.552 119.896C205.493 119.896 196.657 129.986 196.657 141.986C196.657 154.404 206.627 163.418 218.806 163.418C225.075 163.418 229.493 161.329 231.761 159.657V150.284C229.254 151.896 225.254 153.986 219.224 153.986C212.955 153.986 208.299 150.344 207.105 144.732H237.015V140.374ZM207.284 137.926C208.537 132.433 212.119 128.971 217.313 128.971C222.09 128.971 226.627 131.956 227.045 137.926H207.284ZM269.313 119.896C263.761 119.896 259.343 123.478 256.836 126.821V120.971H246.448V162.165H256.836V136.075C259.224 132.792 262.448 129.986 266.149 129.986C270.806 129.986 273.672 132.732 273.672 138.284L273.731 162.165H284.119V136.851C284.119 125.627 277.731 119.896 269.313 119.896ZM370.269 107.478H359.045V129.747H333.672V107.478H322.328V162.165H333.672V139.956H359.045V162.165H370.269V107.478ZM404 119.896C392 119.896 381.97 129.448 381.97 141.687C381.97 153.866 392 163.418 404 163.418C416 163.418 426.149 153.866 426.149 141.687C426.149 129.448 416 119.896 404 119.896ZM404 129.926C409.91 129.926 415.105 134.165 415.105 141.687C415.105 149.21 409.91 153.329 404 153.329C398.149 153.329 393.015 149.21 393.015 141.687C393.015 134.165 398.149 129.926 404 129.926ZM472.299 120.971H461.791V143.657C461.791 149.986 458.508 153.21 453.731 153.21C448.896 153.21 445.612 149.986 445.612 143.657L445.552 120.971H435.105V145.508C435.105 156.553 443.045 163.239 453.731 163.239C464.418 163.239 472.299 156.553 472.299 145.508V120.971ZM497.493 119.896C488.179 119.896 481.612 125.21 481.612 132.971C481.612 138.165 483.642 141.986 489.97 144.135L495.045 145.926C498.627 147.18 500.478 148.075 500.478 150.165C500.478 152.851 498.209 154.404 494.03 154.404C490.03 154.404 484.478 152.314 481.373 150.165V159.239C484.179 161.269 489.851 163.418 495.403 163.418C504.239 163.418 511.403 157.747 511.403 150.165C511.403 144.851 508.418 141.21 502.03 139.299L497.373 137.747C493.731 136.613 492.657 135.239 492.657 133.448C492.657 131.001 495.105 129.03 499.045 129.03C503.105 129.03 507.105 131.06 509.612 132.792V123.657C507.284 121.627 502.627 119.896 497.493 119.896ZM557.731 140.374C557.731 128.374 550.448 119.896 538.269 119.896C526.209 119.896 517.373 129.986 517.373 141.986C517.373 154.404 527.343 163.418 539.522 163.418C545.791 163.418 550.209 161.329 552.478 159.657V150.284C549.97 151.896 545.97 153.986 539.881 153.986C533.612 153.986 528.955 150.344 527.821 144.732H557.731V140.374ZM528 137.926C529.194 132.433 532.836 128.971 538.03 128.971C542.746 128.971 547.343 131.956 547.761 137.926H528Z" fill="#30C47E"/>
<path d="M304.173 67.1678C319.683 51.6639 323.319 0.66275 323.319 0.66275C323.319 0.66275 312.79 6.15247 295.969 7.59581C280.107 8.95797 265.417 11.1952 256.809 19.8031C243.524 33.0909 240.2 52.0027 247.761 65.3677C256.084 52.3074 290.308 33.6722 290.308 33.6722C265.744 51.2389 253.228 64.8615 236.375 88.8691L244.639 91.0812C244.639 91.0812 250.791 79.9705 256.14 74.6031C269.563 84.1271 290.038 81.3076 304.173 67.1678Z" fill="#30C47E"/>
</g>
<defs>
<clipPath id="clip0">
<rect width="557.731" height="185" fill="white"/>
</clipPath>
</defs>
</svg>
